<?xml version="1.0" encoding="utf-8" standalone="no"?>
<!DOCTYPE svg PUBLIC "-//W3C//DTD SVG 1.1//EN"
  "http://www.w3.org/Graphics/SVG/1.1/DTD/svg11.dtd">
<!-- Created with matplotlib (http://matplotlib.org/) -->
<svg height="288pt" version="1.1" viewBox="0 0 432 288" width="432pt" xmlns="http://www.w3.org/2000/svg" xmlns:xlink="http://www.w3.org/1999/xlink">
 <defs>
  <style type="text/css">
*{stroke-linecap:butt;stroke-linejoin:round;}
  </style>
 </defs>
 <g id="figure_1">
  <g id="patch_1">
   <path d="M 0 288 
L 432 288 
L 432 0 
L 0 0 
z
" style="fill:#ffffff;"/>
  </g>
  <g id="axes_1">
   <g id="patch_2">
    <path d="M 54 252 
L 388.8 252 
L 388.8 34.56 
L 54 34.56 
z
" style="fill:#ffffff;"/>
   </g>
   <g id="matplotlib.axis_1">
    <g id="xtick_1">
     <g id="line2d_1"/>
     <g id="text_1">
      <!-- 0.1 -->
      <defs>
       <path d="M 4.15625 35.296875 
Q 4.15625 48 6.765625 55.734375 
Q 9.375 63.484375 14.515625 67.671875 
Q 19.671875 71.875 27.484375 71.875 
Q 33.25 71.875 37.59375 69.546875 
Q 41.9375 67.234375 44.765625 62.859375 
Q 47.609375 58.5 49.21875 52.21875 
Q 50.828125 45.953125 50.828125 35.296875 
Q 50.828125 22.703125 48.234375 14.96875 
Q 45.65625 7.234375 40.5 3 
Q 35.359375 -1.21875 27.484375 -1.21875 
Q 17.140625 -1.21875 11.234375 6.203125 
Q 4.15625 15.140625 4.15625 35.296875 
z
M 13.1875 35.296875 
Q 13.1875 17.671875 17.3125 11.828125 
Q 21.4375 6 27.484375 6 
Q 33.546875 6 37.671875 11.859375 
Q 41.796875 17.71875 41.796875 35.296875 
Q 41.796875 52.984375 37.671875 58.78125 
Q 33.546875 64.59375 27.390625 64.59375 
Q 21.34375 64.59375 17.71875 59.46875 
Q 13.1875 52.9375 13.1875 35.296875 
z
" id="ArialMT-30"/>
       <path d="M 9.078125 0 
L 9.078125 10.015625 
L 19.09375 10.015625 
L 19.09375 0 
z
" id="ArialMT-2e"/>
       <path d="M 37.25 0 
L 28.46875 0 
L 28.46875 56 
Q 25.296875 52.984375 20.140625 49.953125 
Q 14.984375 46.921875 10.890625 45.40625 
L 10.890625 53.90625 
Q 18.265625 57.375 23.78125 62.296875 
Q 29.296875 67.234375 31.59375 71.875 
L 37.25 71.875 
z
" id="ArialMT-31"/>
      </defs>
      <g style="fill:#262626;" transform="translate(73.152685 266.157812)scale(0.1 -0.1)">
       <use xlink:href="#ArialMT-30"/>
       <use x="55.615234" xlink:href="#ArialMT-2e"/>
       <use x="83.398438" xlink:href="#ArialMT-31"/>
      </g>
     </g>
    </g>
    <g id="xtick_2">
     <g id="line2d_2"/>
     <g id="text_2">
      <!-- 0.2 -->
      <defs>
       <path d="M 50.34375 8.453125 
L 50.34375 0 
L 3.03125 0 
Q 2.9375 3.171875 4.046875 6.109375 
Q 5.859375 10.9375 9.828125 15.625 
Q 13.8125 20.3125 21.34375 26.46875 
Q 33.015625 36.03125 37.109375 41.625 
Q 41.21875 47.21875 41.21875 52.203125 
Q 41.21875 57.421875 37.46875 61 
Q 33.734375 64.59375 27.734375 64.59375 
Q 21.390625 64.59375 17.578125 60.78125 
Q 13.765625 56.984375 13.71875 50.25 
L 4.6875 51.171875 
Q 5.609375 61.28125 11.65625 66.578125 
Q 17.71875 71.875 27.9375 71.875 
Q 38.234375 71.875 44.234375 66.15625 
Q 50.25 60.453125 50.25 52 
Q 50.25 47.703125 48.484375 43.546875 
Q 46.734375 39.40625 42.65625 34.8125 
Q 38.578125 30.21875 29.109375 22.21875 
Q 21.1875 15.578125 18.9375 13.203125 
Q 16.703125 10.84375 15.234375 8.453125 
z
" id="ArialMT-32"/>
      </defs>
      <g style="fill:#262626;" transform="translate(113.496492 266.157812)scale(0.1 -0.1)">
       <use xlink:href="#ArialMT-30"/>
       <use x="55.615234" xlink:href="#ArialMT-2e"/>
       <use x="83.398438" xlink:href="#ArialMT-32"/>
      </g>
     </g>
    </g>
    <g id="xtick_3">
     <g id="line2d_3"/>
     <g id="text_3">
      <!-- 0.3 -->
      <defs>
       <path d="M 4.203125 18.890625 
L 12.984375 20.0625 
Q 14.5 12.59375 18.140625 9.296875 
Q 21.78125 6 27 6 
Q 33.203125 6 37.46875 10.296875 
Q 41.75 14.59375 41.75 20.953125 
Q 41.75 27 37.796875 30.921875 
Q 33.84375 34.859375 27.734375 34.859375 
Q 25.25 34.859375 21.53125 33.890625 
L 22.515625 41.609375 
Q 23.390625 41.5 23.921875 41.5 
Q 29.546875 41.5 34.03125 44.421875 
Q 38.53125 47.359375 38.53125 53.46875 
Q 38.53125 58.296875 35.25 61.46875 
Q 31.984375 64.65625 26.8125 64.65625 
Q 21.6875 64.65625 18.265625 61.421875 
Q 14.84375 58.203125 13.875 51.765625 
L 5.078125 53.328125 
Q 6.6875 62.15625 12.390625 67.015625 
Q 18.109375 71.875 26.609375 71.875 
Q 32.46875 71.875 37.390625 69.359375 
Q 42.328125 66.84375 44.9375 62.5 
Q 47.5625 58.15625 47.5625 53.265625 
Q 47.5625 48.640625 45.0625 44.828125 
Q 42.578125 41.015625 37.703125 38.765625 
Q 44.046875 37.3125 47.5625 32.6875 
Q 51.078125 28.078125 51.078125 21.140625 
Q 51.078125 11.765625 44.234375 5.25 
Q 37.40625 -1.265625 26.953125 -1.265625 
Q 17.53125 -1.265625 11.296875 4.34375 
Q 5.078125 9.96875 4.203125 18.890625 
z
" id="ArialMT-33"/>
      </defs>
      <g style="fill:#262626;" transform="translate(153.840299 266.157812)scale(0.1 -0.1)">
       <use xlink:href="#ArialMT-30"/>
       <use x="55.615234" xlink:href="#ArialMT-2e"/>
       <use x="83.398438" xlink:href="#ArialMT-33"/>
      </g>
     </g>
    </g>
    <g id="xtick_4">
     <g id="line2d_4"/>
     <g id="text_4">
      <!-- 0.4 -->
      <defs>
       <path d="M 32.328125 0 
L 32.328125 17.140625 
L 1.265625 17.140625 
L 1.265625 25.203125 
L 33.9375 71.578125 
L 41.109375 71.578125 
L 41.109375 25.203125 
L 50.78125 25.203125 
L 50.78125 17.140625 
L 41.109375 17.140625 
L 41.109375 0 
z
M 32.328125 25.203125 
L 32.328125 57.46875 
L 9.90625 25.203125 
z
" id="ArialMT-34"/>
      </defs>
      <g style="fill:#262626;" transform="translate(194.184106 266.157812)scale(0.1 -0.1)">
       <use xlink:href="#ArialMT-30"/>
       <use x="55.615234" xlink:href="#ArialMT-2e"/>
       <use x="83.398438" xlink:href="#ArialMT-34"/>
      </g>
     </g>
    </g>
    <g id="xtick_5">
     <g id="line2d_5"/>
     <g id="text_5">
      <!-- 0.5 -->
      <defs>
       <path d="M 4.15625 18.75 
L 13.375 19.53125 
Q 14.40625 12.796875 18.140625 9.390625 
Q 21.875 6 27.15625 6 
Q 33.5 6 37.890625 10.78125 
Q 42.28125 15.578125 42.28125 23.484375 
Q 42.28125 31 38.0625 35.34375 
Q 33.84375 39.703125 27 39.703125 
Q 22.75 39.703125 19.328125 37.765625 
Q 15.921875 35.84375 13.96875 32.765625 
L 5.71875 33.84375 
L 12.640625 70.609375 
L 48.25 70.609375 
L 48.25 62.203125 
L 19.671875 62.203125 
L 15.828125 42.96875 
Q 22.265625 47.46875 29.34375 47.46875 
Q 38.71875 47.46875 45.15625 40.96875 
Q 51.609375 34.46875 51.609375 24.265625 
Q 51.609375 14.546875 45.953125 7.46875 
Q 39.0625 -1.21875 27.15625 -1.21875 
Q 17.390625 -1.21875 11.203125 4.25 
Q 5.03125 9.71875 4.15625 18.75 
z
" id="ArialMT-35"/>
      </defs>
      <g style="fill:#262626;" transform="translate(234.527912 266.157812)scale(0.1 -0.1)">
       <use xlink:href="#ArialMT-30"/>
       <use x="55.615234" xlink:href="#ArialMT-2e"/>
       <use x="83.398438" xlink:href="#ArialMT-35"/>
      </g>
     </g>
    </g>
    <g id="xtick_6">
     <g id="line2d_6"/>
     <g id="text_6">
      <!-- 0.6 -->
      <defs>
       <path d="M 49.75 54.046875 
L 41.015625 53.375 
Q 39.84375 58.546875 37.703125 60.890625 
Q 34.125 64.65625 28.90625 64.65625 
Q 24.703125 64.65625 21.53125 62.3125 
Q 17.390625 59.28125 14.984375 53.46875 
Q 12.59375 47.65625 12.5 36.921875 
Q 15.671875 41.75 20.265625 44.09375 
Q 24.859375 46.4375 29.890625 46.4375 
Q 38.671875 46.4375 44.84375 39.96875 
Q 51.03125 33.5 51.03125 23.25 
Q 51.03125 16.5 48.125 10.71875 
Q 45.21875 4.9375 40.140625 1.859375 
Q 35.0625 -1.21875 28.609375 -1.21875 
Q 17.625 -1.21875 10.6875 6.859375 
Q 3.765625 14.9375 3.765625 33.5 
Q 3.765625 54.25 11.421875 63.671875 
Q 18.109375 71.875 29.4375 71.875 
Q 37.890625 71.875 43.28125 67.140625 
Q 48.6875 62.40625 49.75 54.046875 
z
M 13.875 23.1875 
Q 13.875 18.65625 15.796875 14.5 
Q 17.71875 10.359375 21.1875 8.171875 
Q 24.65625 6 28.46875 6 
Q 34.03125 6 38.03125 10.484375 
Q 42.046875 14.984375 42.046875 22.703125 
Q 42.046875 30.125 38.078125 34.390625 
Q 34.125 38.671875 28.125 38.671875 
Q 22.171875 38.671875 18.015625 34.390625 
Q 13.875 30.125 13.875 23.1875 
z
" id="ArialMT-36"/>
      </defs>
      <g style="fill:#262626;" transform="translate(274.871719 266.157812)scale(0.1 -0.1)">
       <use xlink:href="#ArialMT-30"/>
       <use x="55.615234" xlink:href="#ArialMT-2e"/>
       <use x="83.398438" xlink:href="#ArialMT-36"/>
      </g>
     </g>
    </g>
    <g id="xtick_7">
     <g id="line2d_7"/>
     <g id="text_7">
      <!-- 0.7 -->
      <defs>
       <path d="M 4.734375 62.203125 
L 4.734375 70.65625 
L 51.078125 70.65625 
L 51.078125 63.8125 
Q 44.234375 56.546875 37.515625 44.484375 
Q 30.8125 32.421875 27.15625 19.671875 
Q 24.515625 10.6875 23.78125 0 
L 14.75 0 
Q 14.890625 8.453125 18.0625 20.40625 
Q 21.234375 32.375 27.171875 43.484375 
Q 33.109375 54.59375 39.796875 62.203125 
z
" id="ArialMT-37"/>
      </defs>
      <g style="fill:#262626;" transform="translate(315.215526 266.157812)scale(0.1 -0.1)">
       <use xlink:href="#ArialMT-30"/>
       <use x="55.615234" xlink:href="#ArialMT-2e"/>
       <use x="83.398438" xlink:href="#ArialMT-37"/>
      </g>
     </g>
    </g>
    <g id="xtick_8">
     <g id="line2d_8"/>
     <g id="text_8">
      <!-- 0.8 -->
      <defs>
       <path d="M 17.671875 38.8125 
Q 12.203125 40.828125 9.5625 44.53125 
Q 6.9375 48.25 6.9375 53.421875 
Q 6.9375 61.234375 12.546875 66.546875 
Q 18.171875 71.875 27.484375 71.875 
Q 36.859375 71.875 42.578125 66.421875 
Q 48.296875 60.984375 48.296875 53.171875 
Q 48.296875 48.1875 45.671875 44.5 
Q 43.0625 40.828125 37.75 38.8125 
Q 44.34375 36.671875 47.78125 31.875 
Q 51.21875 27.09375 51.21875 20.453125 
Q 51.21875 11.28125 44.71875 5.03125 
Q 38.234375 -1.21875 27.640625 -1.21875 
Q 17.046875 -1.21875 10.546875 5.046875 
Q 4.046875 11.328125 4.046875 20.703125 
Q 4.046875 27.6875 7.59375 32.390625 
Q 11.140625 37.109375 17.671875 38.8125 
z
M 15.921875 53.71875 
Q 15.921875 48.640625 19.1875 45.40625 
Q 22.46875 42.1875 27.6875 42.1875 
Q 32.765625 42.1875 36.015625 45.375 
Q 39.265625 48.578125 39.265625 53.21875 
Q 39.265625 58.0625 35.90625 61.359375 
Q 32.5625 64.65625 27.59375 64.65625 
Q 22.5625 64.65625 19.234375 61.421875 
Q 15.921875 58.203125 15.921875 53.71875 
z
M 13.09375 20.65625 
Q 13.09375 16.890625 14.875 13.375 
Q 16.65625 9.859375 20.171875 7.921875 
Q 23.6875 6 27.734375 6 
Q 34.03125 6 38.125 10.046875 
Q 42.234375 14.109375 42.234375 20.359375 
Q 42.234375 26.703125 38.015625 30.859375 
Q 33.796875 35.015625 27.4375 35.015625 
Q 21.234375 35.015625 17.15625 30.90625 
Q 13.09375 26.8125 13.09375 20.65625 
z
" id="ArialMT-38"/>
      </defs>
      <g style="fill:#262626;" transform="translate(355.559333 266.157812)scale(0.1 -0.1)">
       <use xlink:href="#ArialMT-30"/>
       <use x="55.615234" xlink:href="#ArialMT-2e"/>
       <use x="83.398438" xlink:href="#ArialMT-38"/>
      </g>
     </g>
    </g>
   </g>
   <g id="matplotlib.axis_2">
    <g id="ytick_1">
     <g id="line2d_9"/>
     <g id="text_9">
      <!-- 0.0 -->
      <g style="fill:#262626;" transform="translate(33.1 242.081522)scale(0.1 -0.1)">
       <use xlink:href="#ArialMT-30"/>
       <use x="55.615234" xlink:href="#ArialMT-2e"/>
       <use x="83.398438" xlink:href="#ArialMT-30"/>
      </g>
     </g>
    </g>
    <g id="ytick_2">
     <g id="line2d_10"/>
     <g id="text_10">
      <!-- 0.2 -->
      <g style="fill:#262626;" transform="translate(33.1 202.252487)scale(0.1 -0.1)">
       <use xlink:href="#ArialMT-30"/>
       <use x="55.615234" xlink:href="#ArialMT-2e"/>
       <use x="83.398438" xlink:href="#ArialMT-32"/>
      </g>
     </g>
    </g>
    <g id="ytick_3">
     <g id="line2d_11"/>
     <g id="text_11">
      <!-- 0.4 -->
      <g style="fill:#262626;" transform="translate(33.1 162.423453)scale(0.1 -0.1)">
       <use xlink:href="#ArialMT-30"/>
       <use x="55.615234" xlink:href="#ArialMT-2e"/>
       <use x="83.398438" xlink:href="#ArialMT-34"/>
      </g>
     </g>
    </g>
    <g id="ytick_4">
     <g id="line2d_12"/>
     <g id="text_12">
      <!-- 0.6 -->
      <g style="fill:#262626;" transform="translate(33.1 122.594418)scale(0.1 -0.1)">
       <use xlink:href="#ArialMT-30"/>
       <use x="55.615234" xlink:href="#ArialMT-2e"/>
       <use x="83.398438" xlink:href="#ArialMT-36"/>
      </g>
     </g>
    </g>
    <g id="ytick_5">
     <g id="line2d_13"/>
     <g id="text_13">
      <!-- 0.8 -->
      <g style="fill:#262626;" transform="translate(33.1 82.765383)scale(0.1 -0.1)">
       <use xlink:href="#ArialMT-30"/>
       <use x="55.615234" xlink:href="#ArialMT-2e"/>
       <use x="83.398438" xlink:href="#ArialMT-38"/>
      </g>
     </g>
    </g>
    <g id="ytick_6">
     <g id="line2d_14"/>
     <g id="text_14">
      <!-- 1.0 -->
      <g style="fill:#262626;" transform="translate(33.1 42.936349)scale(0.1 -0.1)">
       <use xlink:href="#ArialMT-31"/>
       <use x="55.615234" xlink:href="#ArialMT-2e"/>
       <use x="83.398438" xlink:href="#ArialMT-30"/>
      </g>
     </g>
    </g>
   </g>
   <g id="PathCollection_1">
    <path clip-path="url(#pe71022c990)" d="M 220.169912 230.445538 
C 221.922321 230.445538 223.603191 229.749299 224.842331 228.510159 
C 226.081471 227.271019 226.77771 225.590149 226.77771 223.83774 
C 226.77771 222.085332 226.081471 220.404462 224.842331 219.165322 
C 223.603191 217.926182 221.922321 217.229943 220.169912 217.229943 
C 218.417504 217.229943 216.736634 217.926182 215.497494 219.165322 
C 214.258354 220.404462 213.562115 222.085332 213.562115 223.83774 
C 213.562115 225.590149 214.258354 227.271019 215.497494 228.510159 
C 216.736634 229.749299 218.417504 230.445538 220.169912 230.445538 
z
" style="fill:#f8d7c0;stroke:#f8d7c0;stroke-width:0.3;"/>
    <path clip-path="url(#pe71022c990)" d="M 322.629219 242.064286 
C 323.992338 242.064286 325.29981 241.522713 326.263681 240.558842 
C 327.227552 239.594971 327.769124 238.287499 327.769124 236.92438 
C 327.769124 235.561261 327.227552 234.253788 326.263681 233.289918 
C 325.29981 232.326047 323.992338 231.784474 322.629219 231.784474 
C 321.2661 231.784474 319.958627 232.326047 318.994756 233.289918 
C 318.030886 234.253788 317.489313 235.561261 317.489313 236.92438 
C 317.489313 238.287499 318.030886 239.594971 318.994756 240.558842 
C 319.958627 241.522713 321.2661 242.064286 322.629219 242.064286 
z
" style="fill:#140e26;stroke:#140e26;stroke-width:0.3;"/>
    <path clip-path="url(#pe71022c990)" d="M 121.215494 120.252628 
C 123.083495 120.252628 124.87524 119.510463 126.196116 118.189586 
C 127.516993 116.86871 128.259158 115.076965 128.259158 113.208964 
C 128.259158 111.340962 127.516993 109.549218 126.196116 108.228341 
C 124.87524 106.907464 123.083495 106.1653 121.215494 106.1653 
C 119.347492 106.1653 117.555748 106.907464 116.234871 108.228341 
C 114.913994 109.549218 114.17183 111.340962 114.17183 113.208964 
C 114.17183 115.076965 114.913994 116.86871 116.234871 118.189586 
C 117.555748 119.510463 119.347492 120.252628 121.215494 120.252628 
z
" style="fill:#06071c;stroke:#06071c;stroke-width:0.3;"/>
    <path clip-path="url(#pe71022c990)" d="M 205.153505 71.984918 
C 206.600685 71.984918 207.988787 71.409947 209.012098 70.386636 
C 210.035409 69.363326 210.61038 67.975223 210.61038 66.528043 
C 210.61038 65.080863 210.035409 63.692761 209.012098 62.66945 
C 207.988787 61.646139 206.600685 61.071168 205.153505 61.071168 
C 203.706324 61.071168 202.318222 61.646139 201.294911 62.66945 
C 200.2716 63.692761 199.69663 65.080863 199.69663 66.528043 
C 199.69663 67.975223 200.2716 69.363326 201.294911 70.386636 
C 202.318222 71.409947 203.706324 71.984918 205.153505 71.984918 
z
" style="fill:#f9dfcb;stroke:#f9dfcb;stroke-width:0.3;"/>
    <path clip-path="url(#pe71022c990)" d="M 302.87604 184.519123 
C 304.015413 184.519123 305.108274 184.066446 305.913933 183.260787 
C 306.719592 182.455128 307.17227 181.362267 307.17227 180.222894 
C 307.17227 179.08352 306.719592 177.990659 305.913933 177.185 
C 305.108274 176.379342 304.015413 175.926664 302.87604 175.926664 
C 301.736666 175.926664 300.643805 176.379342 299.838147 177.185 
C 299.032488 177.990659 298.57981 179.08352 298.57981 180.222894 
C 298.57981 181.362267 299.032488 182.455128 299.838147 183.260787 
C 300.643805 184.066446 301.736666 184.519123 302.87604 184.519123 
z
" style="fill:#e03143;stroke:#e03143;stroke-width:0.3;"/>
    <path clip-path="url(#pe71022c990)" d="M 313.202878 57.791073 
C 313.916216 57.791073 314.600432 57.507661 315.104838 57.003255 
C 315.609244 56.49885 315.892656 55.814633 315.892656 55.101296 
C 315.892656 54.387959 315.609244 53.703742 315.104838 53.199336 
C 314.600432 52.694931 313.916216 52.411519 313.202878 52.411519 
C 312.489541 52.411519 311.805324 52.694931 311.300919 53.199336 
C 310.796513 53.703742 310.513101 54.387959 310.513101 55.101296 
C 310.513101 55.814633 310.796513 56.49885 311.300919 57.003255 
C 311.805324 57.507661 312.489541 57.791073 313.202878 57.791073 
z
" style="fill:#4c1d4b;stroke:#4c1d4b;stroke-width:0.3;"/>
    <path clip-path="url(#pe71022c990)" d="M 282.593486 116.552321 
C 283.099311 116.552321 283.584487 116.351355 283.94216 115.993683 
C 284.299832 115.63601 284.500798 115.150834 284.500798 114.645009 
C 284.500798 114.139184 284.299832 113.654008 283.94216 113.296336 
C 283.584487 112.938664 283.099311 112.737697 282.593486 112.737697 
C 282.087661 112.737697 281.602485 112.938664 281.244813 113.296336 
C 280.887141 113.654008 280.686174 114.139184 280.686174 114.645009 
C 280.686174 115.150834 280.887141 115.63601 281.244813 115.993683 
C 281.602485 116.351355 282.087661 116.552321 282.593486 116.552321 
z
" style="fill:#faebdd;stroke:#faebdd;stroke-width:0.3;"/>
    <path clip-path="url(#pe71022c990)" d="M 76.628807 148.431954 
C 78.259762 148.431954 79.824137 147.783969 80.977397 146.630709 
C 82.130656 145.47745 82.778642 143.913075 82.778642 142.282119 
C 82.778642 140.651164 82.130656 139.086789 80.977397 137.93353 
C 79.824137 136.78027 78.259762 136.132285 76.628807 136.132285 
C 74.997852 136.132285 73.433477 136.78027 72.280217 137.93353 
C 71.126958 139.086789 70.478973 140.651164 70.478973 142.282119 
C 70.478973 143.913075 71.126958 145.47745 72.280217 146.630709 
C 73.433477 147.783969 74.997852 148.431954 76.628807 148.431954 
z
" style="fill:#f58860;stroke:#f58860;stroke-width:0.3;"/>
    <path clip-path="url(#pe71022c990)" d="M 190.728261 168.56274 
C 192.110755 168.56274 193.436812 168.013469 194.414383 167.035898 
C 195.391953 166.058328 195.941224 164.732271 195.941224 163.349777 
C 195.941224 161.967283 195.391953 160.641227 194.414383 159.663656 
C 193.436812 158.686085 192.110755 158.136815 190.728261 158.136815 
C 189.345768 158.136815 188.019711 158.686085 187.04214 159.663656 
C 186.06457 160.641227 185.515299 161.967283 185.515299 163.349777 
C 185.515299 164.732271 186.06457 166.058328 187.04214 167.035898 
C 188.019711 168.013469 189.345768 168.56274 190.728261 168.56274 
z
" style="fill:#f47d57;stroke:#f47d57;stroke-width:0.3;"/>
    <path clip-path="url(#pe71022c990)" d="M 255.231725 124.596673 
C 256.410275 124.596673 257.540713 124.12843 258.374073 123.295069 
C 259.207434 122.461709 259.675676 121.331271 259.675676 120.152721 
C 259.675676 118.974172 259.207434 117.843734 258.374073 117.010373 
C 257.540713 116.177013 256.410275 115.70877 255.231725 115.70877 
C 254.053175 115.70877 252.922737 116.177013 252.089377 117.010373 
C 251.256016 117.843734 250.787774 118.974172 250.787774 120.152721 
C 250.787774 121.331271 251.256016 122.461709 252.089377 123.295069 
C 252.922737 124.12843 254.053175 124.596673 255.231725 124.596673 
z
" style="fill:#34193d;stroke:#34193d;stroke-width:0.3;"/>
    <path clip-path="url(#pe71022c990)" d="M 179.050538 242.614141 
C 180.619546 242.614141 182.124502 241.990768 183.233958 240.881312 
C 184.343414 239.771856 184.966788 238.2669 184.966788 236.697892 
C 184.966788 235.128884 184.343414 233.623928 183.233958 232.514472 
C 182.124502 231.405016 180.619546 230.781643 179.050538 230.781643 
C 177.481531 230.781643 175.976574 231.405016 174.867119 232.514472 
C 173.757663 233.623928 173.134289 235.128884 173.134289 236.697892 
C 173.134289 238.2669 173.757663 239.771856 174.867119 240.881312 
C 175.976574 241.990768 177.481531 242.614141 179.050538 242.614141 
z
" style="fill:#03051a;stroke:#03051a;stroke-width:0.3;"/>
    <path clip-path="url(#pe71022c990)" d="M 368.943822 204.21341 
C 369.964568 204.21341 370.943644 203.807863 371.66542 203.086087 
C 372.387196 202.364311 372.792743 201.385235 372.792743 200.364489 
C 372.792743 199.343743 372.387196 198.364667 371.66542 197.642891 
C 370.943644 196.921115 369.964568 196.515568 368.943822 196.515568 
C 367.923076 196.515568 366.944 196.921115 366.222224 197.642891 
C 365.500448 198.364667 365.094901 199.343743 365.094901 200.364489 
C 365.094901 201.385235 365.500448 202.364311 366.222224 203.086087 
C 366.944 203.807863 367.923076 204.21341 368.943822 204.21341 
z
" style="fill:#03051a;stroke:#03051a;stroke-width:0.3;"/>
    <path clip-path="url(#pe71022c990)" d="M 356.180613 114.236578 
C 357.99427 114.236578 359.733888 113.516004 361.016336 112.233556 
C 362.298785 110.951107 363.019358 109.211489 363.019358 107.397833 
C 363.019358 105.584176 362.298785 103.844559 361.016336 102.56211 
C 359.733888 101.279661 357.99427 100.559088 356.180613 100.559088 
C 354.366957 100.559088 352.627339 101.279661 351.34489 102.56211 
C 350.062442 103.844559 349.341868 105.584176 349.341868 107.397833 
C 349.341868 109.211489 350.062442 110.951107 351.34489 112.233556 
C 352.627339 113.516004 354.366957 114.236578 356.180613 114.236578 
z
" style="fill:#06071c;stroke:#06071c;stroke-width:0.3;"/>
    <path clip-path="url(#pe71022c990)" d="M 210.451501 194.923215 
C 211.246184 194.923215 212.008425 194.607484 212.570351 194.045558 
C 213.132276 193.483633 213.448007 192.721391 213.448007 191.926709 
C 213.448007 191.132026 213.132276 190.369785 212.570351 189.807859 
C 212.008425 189.245934 211.246184 188.930203 210.451501 188.930203 
C 209.656819 188.930203 208.894577 189.245934 208.332652 189.807859 
C 207.770726 190.369785 207.454996 191.132026 207.454996 191.926709 
C 207.454996 192.721391 207.770726 193.483633 208.332652 194.045558 
C 208.894577 194.607484 209.656819 194.923215 210.451501 194.923215 
z
" style="fill:#f26b49;stroke:#f26b49;stroke-width:0.3;"/>
    <path clip-path="url(#pe71022c990)" d="M 213.257072 54.289046 
C 214.619922 54.289046 215.927136 53.74758 216.890817 52.783899 
C 217.854497 51.820219 218.395963 50.513005 218.395963 49.150155 
C 218.395963 47.787305 217.854497 46.48009 216.890817 45.51641 
C 215.927136 44.55273 214.619922 44.011264 213.257072 44.011264 
C 211.894222 44.011264 210.587008 44.55273 209.623327 45.51641 
C 208.659647 46.48009 208.118181 47.787305 208.118181 49.150155 
C 208.118181 50.513005 208.659647 51.820219 209.623327 52.783899 
C 210.587008 53.74758 211.894222 54.289046 213.257072 54.289046 
z
" style="fill:#5e1f52;stroke:#5e1f52;stroke-width:0.3;"/>
   </g>
   <g id="patch_3">
    <path d="M 54 252 
L 54 34.56 
" style="fill:none;stroke:#262626;stroke-linecap:square;stroke-linejoin:miter;stroke-width:1.25;"/>
   </g>
   <g id="patch_4">
    <path d="M 388.8 252 
L 388.8 34.56 
" style="fill:none;stroke:#262626;stroke-linecap:square;stroke-linejoin:miter;stroke-width:1.25;"/>
   </g>
   <g id="patch_5">
    <path d="M 54 252 
L 388.8 252 
" style="fill:none;stroke:#262626;stroke-linecap:square;stroke-linejoin:miter;stroke-width:1.25;"/>
   </g>
   <g id="patch_6">
    <path d="M 54 34.56 
L 388.8 34.56 
" style="fill:none;stroke:#262626;stroke-linecap:square;stroke-linejoin:miter;stroke-width:1.25;"/>
   </g>
  </g>
 </g>
 <defs>
  <clipPath id="pe71022c990">
   <rect height="217.44" width="334.8" x="54" y="34.56"/>
  </clipPath>
 </defs>
</svg>
