<?xml version="1.0" encoding="utf-8" standalone="no"?>
<!DOCTYPE svg PUBLIC "-//W3C//DTD SVG 1.1//EN"
  "http://www.w3.org/Graphics/SVG/1.1/DTD/svg11.dtd">
<!-- Created with matplotlib (http://matplotlib.org/) -->
<svg height="288pt" version="1.1" viewBox="0 0 432 288" width="432pt" xmlns="http://www.w3.org/2000/svg" xmlns:xlink="http://www.w3.org/1999/xlink">
 <defs>
  <style type="text/css">
*{stroke-linecap:butt;stroke-linejoin:round;}
  </style>
 </defs>
 <g id="figure_1">
  <g id="patch_1">
   <path d="M 0 288 
L 432 288 
L 432 0 
L 0 0 
z
" style="fill:#ffffff;"/>
  </g>
  <g id="axes_1">
   <g id="patch_2">
    <path d="M 54 252 
L 388.8 252 
L 388.8 34.56 
L 54 34.56 
z
" style="fill:#ffffff;"/>
   </g>
   <g id="matplotlib.axis_1">
    <g id="xtick_1">
     <g id="line2d_1"/>
     <g id="text_1">
      <!-- 0.2 -->
      <defs>
       <path d="M 4.15625 35.296875 
Q 4.15625 48 6.765625 55.734375 
Q 9.375 63.484375 14.515625 67.671875 
Q 19.671875 71.875 27.484375 71.875 
Q 33.25 71.875 37.59375 69.546875 
Q 41.9375 67.234375 44.765625 62.859375 
Q 47.609375 58.5 49.21875 52.21875 
Q 50.828125 45.953125 50.828125 35.296875 
Q 50.828125 22.703125 48.234375 14.96875 
Q 45.65625 7.234375 40.5 3 
Q 35.359375 -1.21875 27.484375 -1.21875 
Q 17.140625 -1.21875 11.234375 6.203125 
Q 4.15625 15.140625 4.15625 35.296875 
z
M 13.1875 35.296875 
Q 13.1875 17.671875 17.3125 11.828125 
Q 21.4375 6 27.484375 6 
Q 33.546875 6 37.671875 11.859375 
Q 41.796875 17.71875 41.796875 35.296875 
Q 41.796875 52.984375 37.671875 58.78125 
Q 33.546875 64.59375 27.390625 64.59375 
Q 21.34375 64.59375 17.71875 59.46875 
Q 13.1875 52.9375 13.1875 35.296875 
z
" id="ArialMT-30"/>
       <path d="M 9.078125 0 
L 9.078125 10.015625 
L 19.09375 10.015625 
L 19.09375 0 
z
" id="ArialMT-2e"/>
       <path d="M 50.34375 8.453125 
L 50.34375 0 
L 3.03125 0 
Q 2.9375 3.171875 4.046875 6.109375 
Q 5.859375 10.9375 9.828125 15.625 
Q 13.8125 20.3125 21.34375 26.46875 
Q 33.015625 36.03125 37.109375 41.625 
Q 41.21875 47.21875 41.21875 52.203125 
Q 41.21875 57.421875 37.46875 61 
Q 33.734375 64.59375 27.734375 64.59375 
Q 21.390625 64.59375 17.578125 60.78125 
Q 13.765625 56.984375 13.71875 50.25 
L 4.6875 51.171875 
Q 5.609375 61.28125 11.65625 66.578125 
Q 17.71875 71.875 27.9375 71.875 
Q 38.234375 71.875 44.234375 66.15625 
Q 50.25 60.453125 50.25 52 
Q 50.25 47.703125 48.484375 43.546875 
Q 46.734375 39.40625 42.65625 34.8125 
Q 38.578125 30.21875 29.109375 22.21875 
Q 21.1875 15.578125 18.9375 13.203125 
Q 16.703125 10.84375 15.234375 8.453125 
z
" id="ArialMT-32"/>
      </defs>
      <g style="fill:#262626;" transform="translate(96.695745 266.157812)scale(0.1 -0.1)">
       <use xlink:href="#ArialMT-30"/>
       <use x="55.615234" xlink:href="#ArialMT-2e"/>
       <use x="83.398438" xlink:href="#ArialMT-32"/>
      </g>
     </g>
    </g>
    <g id="xtick_2">
     <g id="line2d_2"/>
     <g id="text_2">
      <!-- 0.4 -->
      <defs>
       <path d="M 32.328125 0 
L 32.328125 17.140625 
L 1.265625 17.140625 
L 1.265625 25.203125 
L 33.9375 71.578125 
L 41.109375 71.578125 
L 41.109375 25.203125 
L 50.78125 25.203125 
L 50.78125 17.140625 
L 41.109375 17.140625 
L 41.109375 0 
z
M 32.328125 25.203125 
L 32.328125 57.46875 
L 9.90625 25.203125 
z
" id="ArialMT-34"/>
      </defs>
      <g style="fill:#262626;" transform="translate(168.848437 266.157812)scale(0.1 -0.1)">
       <use xlink:href="#ArialMT-30"/>
       <use x="55.615234" xlink:href="#ArialMT-2e"/>
       <use x="83.398438" xlink:href="#ArialMT-34"/>
      </g>
     </g>
    </g>
    <g id="xtick_3">
     <g id="line2d_3"/>
     <g id="text_3">
      <!-- 0.6 -->
      <defs>
       <path d="M 49.75 54.046875 
L 41.015625 53.375 
Q 39.84375 58.546875 37.703125 60.890625 
Q 34.125 64.65625 28.90625 64.65625 
Q 24.703125 64.65625 21.53125 62.3125 
Q 17.390625 59.28125 14.984375 53.46875 
Q 12.59375 47.65625 12.5 36.921875 
Q 15.671875 41.75 20.265625 44.09375 
Q 24.859375 46.4375 29.890625 46.4375 
Q 38.671875 46.4375 44.84375 39.96875 
Q 51.03125 33.5 51.03125 23.25 
Q 51.03125 16.5 48.125 10.71875 
Q 45.21875 4.9375 40.140625 1.859375 
Q 35.0625 -1.21875 28.609375 -1.21875 
Q 17.625 -1.21875 10.6875 6.859375 
Q 3.765625 14.9375 3.765625 33.5 
Q 3.765625 54.25 11.421875 63.671875 
Q 18.109375 71.875 29.4375 71.875 
Q 37.890625 71.875 43.28125 67.140625 
Q 48.6875 62.40625 49.75 54.046875 
z
M 13.875 23.1875 
Q 13.875 18.65625 15.796875 14.5 
Q 17.71875 10.359375 21.1875 8.171875 
Q 24.65625 6 28.46875 6 
Q 34.03125 6 38.03125 10.484375 
Q 42.046875 14.984375 42.046875 22.703125 
Q 42.046875 30.125 38.078125 34.390625 
Q 34.125 38.671875 28.125 38.671875 
Q 22.171875 38.671875 18.015625 34.390625 
Q 13.875 30.125 13.875 23.1875 
z
" id="ArialMT-36"/>
      </defs>
      <g style="fill:#262626;" transform="translate(241.001128 266.157812)scale(0.1 -0.1)">
       <use xlink:href="#ArialMT-30"/>
       <use x="55.615234" xlink:href="#ArialMT-2e"/>
       <use x="83.398438" xlink:href="#ArialMT-36"/>
      </g>
     </g>
    </g>
    <g id="xtick_4">
     <g id="line2d_4"/>
     <g id="text_4">
      <!-- 0.8 -->
      <defs>
       <path d="M 17.671875 38.8125 
Q 12.203125 40.828125 9.5625 44.53125 
Q 6.9375 48.25 6.9375 53.421875 
Q 6.9375 61.234375 12.546875 66.546875 
Q 18.171875 71.875 27.484375 71.875 
Q 36.859375 71.875 42.578125 66.421875 
Q 48.296875 60.984375 48.296875 53.171875 
Q 48.296875 48.1875 45.671875 44.5 
Q 43.0625 40.828125 37.75 38.8125 
Q 44.34375 36.671875 47.78125 31.875 
Q 51.21875 27.09375 51.21875 20.453125 
Q 51.21875 11.28125 44.71875 5.03125 
Q 38.234375 -1.21875 27.640625 -1.21875 
Q 17.046875 -1.21875 10.546875 5.046875 
Q 4.046875 11.328125 4.046875 20.703125 
Q 4.046875 27.6875 7.59375 32.390625 
Q 11.140625 37.109375 17.671875 38.8125 
z
M 15.921875 53.71875 
Q 15.921875 48.640625 19.1875 45.40625 
Q 22.46875 42.1875 27.6875 42.1875 
Q 32.765625 42.1875 36.015625 45.375 
Q 39.265625 48.578125 39.265625 53.21875 
Q 39.265625 58.0625 35.90625 61.359375 
Q 32.5625 64.65625 27.59375 64.65625 
Q 22.5625 64.65625 19.234375 61.421875 
Q 15.921875 58.203125 15.921875 53.71875 
z
M 13.09375 20.65625 
Q 13.09375 16.890625 14.875 13.375 
Q 16.65625 9.859375 20.171875 7.921875 
Q 23.6875 6 27.734375 6 
Q 34.03125 6 38.125 10.046875 
Q 42.234375 14.109375 42.234375 20.359375 
Q 42.234375 26.703125 38.015625 30.859375 
Q 33.796875 35.015625 27.4375 35.015625 
Q 21.234375 35.015625 17.15625 30.90625 
Q 13.09375 26.8125 13.09375 20.65625 
z
" id="ArialMT-38"/>
      </defs>
      <g style="fill:#262626;" transform="translate(313.15382 266.157812)scale(0.1 -0.1)">
       <use xlink:href="#ArialMT-30"/>
       <use x="55.615234" xlink:href="#ArialMT-2e"/>
       <use x="83.398438" xlink:href="#ArialMT-38"/>
      </g>
     </g>
    </g>
   </g>
   <g id="matplotlib.axis_2">
    <g id="ytick_1">
     <g id="line2d_5"/>
     <g id="text_5">
      <!-- 0.0 -->
      <g style="fill:#262626;" transform="translate(33.1 247.253181)scale(0.1 -0.1)">
       <use xlink:href="#ArialMT-30"/>
       <use x="55.615234" xlink:href="#ArialMT-2e"/>
       <use x="83.398438" xlink:href="#ArialMT-30"/>
      </g>
     </g>
    </g>
    <g id="ytick_2">
     <g id="line2d_6"/>
     <g id="text_6">
      <!-- 0.1 -->
      <defs>
       <path d="M 37.25 0 
L 28.46875 0 
L 28.46875 56 
Q 25.296875 52.984375 20.140625 49.953125 
Q 14.984375 46.921875 10.890625 45.40625 
L 10.890625 53.90625 
Q 18.265625 57.375 23.78125 62.296875 
Q 29.296875 67.234375 31.59375 71.875 
L 37.25 71.875 
z
" id="ArialMT-31"/>
      </defs>
      <g style="fill:#262626;" transform="translate(33.1 221.671234)scale(0.1 -0.1)">
       <use xlink:href="#ArialMT-30"/>
       <use x="55.615234" xlink:href="#ArialMT-2e"/>
       <use x="83.398438" xlink:href="#ArialMT-31"/>
      </g>
     </g>
    </g>
    <g id="ytick_3">
     <g id="line2d_7"/>
     <g id="text_7">
      <!-- 0.2 -->
      <g style="fill:#262626;" transform="translate(33.1 196.089287)scale(0.1 -0.1)">
       <use xlink:href="#ArialMT-30"/>
       <use x="55.615234" xlink:href="#ArialMT-2e"/>
       <use x="83.398438" xlink:href="#ArialMT-32"/>
      </g>
     </g>
    </g>
    <g id="ytick_4">
     <g id="line2d_8"/>
     <g id="text_8">
      <!-- 0.3 -->
      <defs>
       <path d="M 4.203125 18.890625 
L 12.984375 20.0625 
Q 14.5 12.59375 18.140625 9.296875 
Q 21.78125 6 27 6 
Q 33.203125 6 37.46875 10.296875 
Q 41.75 14.59375 41.75 20.953125 
Q 41.75 27 37.796875 30.921875 
Q 33.84375 34.859375 27.734375 34.859375 
Q 25.25 34.859375 21.53125 33.890625 
L 22.515625 41.609375 
Q 23.390625 41.5 23.921875 41.5 
Q 29.546875 41.5 34.03125 44.421875 
Q 38.53125 47.359375 38.53125 53.46875 
Q 38.53125 58.296875 35.25 61.46875 
Q 31.984375 64.65625 26.8125 64.65625 
Q 21.6875 64.65625 18.265625 61.421875 
Q 14.84375 58.203125 13.875 51.765625 
L 5.078125 53.328125 
Q 6.6875 62.15625 12.390625 67.015625 
Q 18.109375 71.875 26.609375 71.875 
Q 32.46875 71.875 37.390625 69.359375 
Q 42.328125 66.84375 44.9375 62.5 
Q 47.5625 58.15625 47.5625 53.265625 
Q 47.5625 48.640625 45.0625 44.828125 
Q 42.578125 41.015625 37.703125 38.765625 
Q 44.046875 37.3125 47.5625 32.6875 
Q 51.078125 28.078125 51.078125 21.140625 
Q 51.078125 11.765625 44.234375 5.25 
Q 37.40625 -1.265625 26.953125 -1.265625 
Q 17.53125 -1.265625 11.296875 4.34375 
Q 5.078125 9.96875 4.203125 18.890625 
z
" id="ArialMT-33"/>
      </defs>
      <g style="fill:#262626;" transform="translate(33.1 170.50734)scale(0.1 -0.1)">
       <use xlink:href="#ArialMT-30"/>
       <use x="55.615234" xlink:href="#ArialMT-2e"/>
       <use x="83.398438" xlink:href="#ArialMT-33"/>
      </g>
     </g>
    </g>
    <g id="ytick_5">
     <g id="line2d_9"/>
     <g id="text_9">
      <!-- 0.4 -->
      <g style="fill:#262626;" transform="translate(33.1 144.925392)scale(0.1 -0.1)">
       <use xlink:href="#ArialMT-30"/>
       <use x="55.615234" xlink:href="#ArialMT-2e"/>
       <use x="83.398438" xlink:href="#ArialMT-34"/>
      </g>
     </g>
    </g>
    <g id="ytick_6">
     <g id="line2d_10"/>
     <g id="text_10">
      <!-- 0.5 -->
      <defs>
       <path d="M 4.15625 18.75 
L 13.375 19.53125 
Q 14.40625 12.796875 18.140625 9.390625 
Q 21.875 6 27.15625 6 
Q 33.5 6 37.890625 10.78125 
Q 42.28125 15.578125 42.28125 23.484375 
Q 42.28125 31 38.0625 35.34375 
Q 33.84375 39.703125 27 39.703125 
Q 22.75 39.703125 19.328125 37.765625 
Q 15.921875 35.84375 13.96875 32.765625 
L 5.71875 33.84375 
L 12.640625 70.609375 
L 48.25 70.609375 
L 48.25 62.203125 
L 19.671875 62.203125 
L 15.828125 42.96875 
Q 22.265625 47.46875 29.34375 47.46875 
Q 38.71875 47.46875 45.15625 40.96875 
Q 51.609375 34.46875 51.609375 24.265625 
Q 51.609375 14.546875 45.953125 7.46875 
Q 39.0625 -1.21875 27.15625 -1.21875 
Q 17.390625 -1.21875 11.203125 4.25 
Q 5.03125 9.71875 4.15625 18.75 
z
" id="ArialMT-35"/>
      </defs>
      <g style="fill:#262626;" transform="translate(33.1 119.343445)scale(0.1 -0.1)">
       <use xlink:href="#ArialMT-30"/>
       <use x="55.615234" xlink:href="#ArialMT-2e"/>
       <use x="83.398438" xlink:href="#ArialMT-35"/>
      </g>
     </g>
    </g>
    <g id="ytick_7">
     <g id="line2d_11"/>
     <g id="text_11">
      <!-- 0.6 -->
      <g style="fill:#262626;" transform="translate(33.1 93.761498)scale(0.1 -0.1)">
       <use xlink:href="#ArialMT-30"/>
       <use x="55.615234" xlink:href="#ArialMT-2e"/>
       <use x="83.398438" xlink:href="#ArialMT-36"/>
      </g>
     </g>
    </g>
    <g id="ytick_8">
     <g id="line2d_12"/>
     <g id="text_12">
      <!-- 0.7 -->
      <defs>
       <path d="M 4.734375 62.203125 
L 4.734375 70.65625 
L 51.078125 70.65625 
L 51.078125 63.8125 
Q 44.234375 56.546875 37.515625 44.484375 
Q 30.8125 32.421875 27.15625 19.671875 
Q 24.515625 10.6875 23.78125 0 
L 14.75 0 
Q 14.890625 8.453125 18.0625 20.40625 
Q 21.234375 32.375 27.171875 43.484375 
Q 33.109375 54.59375 39.796875 62.203125 
z
" id="ArialMT-37"/>
      </defs>
      <g style="fill:#262626;" transform="translate(33.1 68.17955)scale(0.1 -0.1)">
       <use xlink:href="#ArialMT-30"/>
       <use x="55.615234" xlink:href="#ArialMT-2e"/>
       <use x="83.398438" xlink:href="#ArialMT-37"/>
      </g>
     </g>
    </g>
    <g id="ytick_9">
     <g id="line2d_13"/>
     <g id="text_13">
      <!-- 0.8 -->
      <g style="fill:#262626;" transform="translate(33.1 42.597603)scale(0.1 -0.1)">
       <use xlink:href="#ArialMT-30"/>
       <use x="55.615234" xlink:href="#ArialMT-2e"/>
       <use x="83.398438" xlink:href="#ArialMT-38"/>
      </g>
     </g>
    </g>
   </g>
   <g id="PathCollection_1">
    <path clip-path="url(#p3ee756f8a8)" d="M 250.673069 241.538625 
C 251.54113 241.538625 252.373755 241.19374 252.987567 240.579928 
C 253.601379 239.966116 253.946264 239.133491 253.946264 238.26543 
C 253.946264 237.397368 253.601379 236.564743 252.987567 235.950931 
C 252.373755 235.337119 251.54113 234.992234 250.673069 234.992234 
C 249.805007 234.992234 248.972382 235.337119 248.35857 235.950931 
C 247.744758 236.564743 247.399873 237.397368 247.399873 238.26543 
C 247.399873 239.133491 247.744758 239.966116 248.35857 240.579928 
C 248.972382 241.19374 249.805007 241.538625 250.673069 241.538625 
z
" style="fill:#4c72b0;stroke:#4c72b0;stroke-width:0.3;"/>
    <path clip-path="url(#p3ee756f8a8)" d="M 321.191573 199.080059 
C 322.62651 199.080059 324.002869 198.509952 325.017523 197.495298 
C 326.032176 196.480645 326.602283 195.104286 326.602283 193.669349 
C 326.602283 192.234412 326.032176 190.858053 325.017523 189.8434 
C 324.002869 188.828746 322.62651 188.25864 321.191573 188.25864 
C 319.756636 188.25864 318.380278 188.828746 317.365624 189.8434 
C 316.35097 190.858053 315.780864 192.234412 315.780864 193.669349 
C 315.780864 195.104286 316.35097 196.480645 317.365624 197.495298 
C 318.380278 198.509952 319.756636 199.080059 321.191573 199.080059 
z
" style="fill:#4c72b0;stroke:#4c72b0;stroke-width:0.3;"/>
    <path clip-path="url(#p3ee756f8a8)" d="M 282.950028 183.493224 
C 283.73787 183.493224 284.49355 183.180211 285.050639 182.623123 
C 285.607727 182.066034 285.92074 181.310354 285.92074 180.522512 
C 285.92074 179.73467 285.607727 178.97899 285.050639 178.421902 
C 284.49355 177.864814 283.73787 177.551801 282.950028 177.551801 
C 282.162187 177.551801 281.406506 177.864814 280.849418 178.421902 
C 280.29233 178.97899 279.979317 179.73467 279.979317 180.522512 
C 279.979317 181.310354 280.29233 182.066034 280.849418 182.623123 
C 281.406506 183.180211 282.162187 183.493224 282.950028 183.493224 
z
" style="fill:#4c72b0;stroke:#4c72b0;stroke-width:0.3;"/>
    <path clip-path="url(#p3ee756f8a8)" d="M 136.424381 193.857366 
C 137.333055 193.857366 138.204634 193.496346 138.847163 192.853817 
C 139.489692 192.211287 139.850712 191.339709 139.850712 190.431035 
C 139.850712 189.522362 139.489692 188.650783 138.847163 188.008253 
C 138.204634 187.365724 137.333055 187.004705 136.424381 187.004705 
C 135.515708 187.004705 134.644129 187.365724 134.0016 188.008253 
C 133.359071 188.650783 132.998051 189.522362 132.998051 190.431035 
C 132.998051 191.339709 133.359071 192.211287 134.0016 192.853817 
C 134.644129 193.496346 135.515708 193.857366 136.424381 193.857366 
z
" style="fill:#4c72b0;stroke:#4c72b0;stroke-width:0.3;"/>
    <path clip-path="url(#p3ee756f8a8)" d="M 188.525114 173.744352 
C 188.995435 173.744352 189.446556 173.557491 189.779124 173.224924 
C 190.111691 172.892357 190.298551 172.441236 190.298551 171.970914 
C 190.298551 171.500593 190.111691 171.049472 189.779124 170.716904 
C 189.446556 170.384337 188.995435 170.197477 188.525114 170.197477 
C 188.054793 170.197477 187.603671 170.384337 187.271104 170.716904 
C 186.938537 171.049472 186.751676 171.500593 186.751676 171.970914 
C 186.751676 172.441236 186.938537 172.892357 187.271104 173.224924 
C 187.603671 173.557491 188.054793 173.744352 188.525114 173.744352 
z
" style="fill:#4c72b0;stroke:#4c72b0;stroke-width:0.3;"/>
    <path clip-path="url(#p3ee756f8a8)" d="M 180.032579 125.632782 
C 181.75997 125.632782 183.416843 124.946483 184.638293 123.725033 
C 185.859742 122.503584 186.546041 120.84671 186.546041 119.11932 
C 186.546041 117.39193 185.859742 115.735056 184.638293 114.513607 
C 183.416843 113.292157 181.75997 112.605858 180.032579 112.605858 
C 178.305189 112.605858 176.648315 113.292157 175.426866 114.513607 
C 174.205417 115.735056 173.519117 117.39193 173.519117 119.11932 
C 173.519117 120.84671 174.205417 122.503584 175.426866 123.725033 
C 176.648315 124.946483 178.305189 125.632782 180.032579 125.632782 
z
" style="fill:#4c72b0;stroke:#4c72b0;stroke-width:0.3;"/>
    <path clip-path="url(#p3ee756f8a8)" d="M 264.033799 59.803304 
C 265.905345 59.803304 267.700489 59.059731 269.023872 57.736348 
C 270.347255 56.412965 271.090828 54.617821 271.090828 52.746275 
C 271.090828 50.874728 270.347255 49.079584 269.023872 47.756201 
C 267.700489 46.432818 265.905345 45.689245 264.033799 45.689245 
C 262.162252 45.689245 260.367108 46.432818 259.043725 47.756201 
C 257.720342 49.079584 256.976769 50.874728 256.976769 52.746275 
C 256.976769 54.617821 257.720342 56.412965 259.043725 57.736348 
C 260.367108 59.059731 262.162252 59.803304 264.033799 59.803304 
z
" style="fill:#4c72b0;stroke:#4c72b0;stroke-width:0.3;"/>
    <path clip-path="url(#p3ee756f8a8)" d="M 107.614685 98.339469 
C 109.048321 98.339469 110.423432 97.769879 111.437166 96.756145 
C 112.4509 95.742412 113.02049 94.367301 113.02049 92.933664 
C 113.02049 91.500028 112.4509 90.124917 111.437166 89.111183 
C 110.423432 88.09745 109.048321 87.52786 107.614685 87.52786 
C 106.181049 87.52786 104.805938 88.09745 103.792204 89.111183 
C 102.77847 90.124917 102.208881 91.500028 102.208881 92.933664 
C 102.208881 94.367301 102.77847 95.742412 103.792204 96.756145 
C 104.805938 97.769879 106.181049 98.339469 107.614685 98.339469 
z
" style="fill:#4c72b0;stroke:#4c72b0;stroke-width:0.3;"/>
    <path clip-path="url(#p3ee756f8a8)" d="M 186.440906 233.422732 
C 187.842974 233.422732 189.187806 232.865684 190.179218 231.874272 
C 191.170631 230.88286 191.727678 229.538028 191.727678 228.135959 
C 191.727678 226.733891 191.170631 225.389059 190.179218 224.397646 
C 189.187806 223.406234 187.842974 222.849187 186.440906 222.849187 
C 185.038837 222.849187 183.694005 223.406234 182.702593 224.397646 
C 181.711181 225.389059 181.154133 226.733891 181.154133 228.135959 
C 181.154133 229.538028 181.711181 230.88286 182.702593 231.874272 
C 183.694005 232.865684 185.038837 233.422732 186.440906 233.422732 
z
" style="fill:#4c72b0;stroke:#4c72b0;stroke-width:0.3;"/>
    <path clip-path="url(#p3ee756f8a8)" d="M 114.249458 231.224519 
C 115.665678 231.224519 117.024084 230.661849 118.025502 229.660431 
C 119.02692 228.659012 119.58959 227.300606 119.58959 225.884387 
C 119.58959 224.468167 119.02692 223.109762 118.025502 222.108343 
C 117.024084 221.106925 115.665678 220.544255 114.249458 220.544255 
C 112.833239 220.544255 111.474833 221.106925 110.473415 222.108343 
C 109.471996 223.109762 108.909326 224.468167 108.909326 225.884387 
C 108.909326 227.300606 109.471996 228.659012 110.473415 229.660431 
C 111.474833 230.661849 112.833239 231.224519 114.249458 231.224519 
z
" style="fill:#4c72b0;stroke:#4c72b0;stroke-width:0.3;"/>
    <path clip-path="url(#p3ee756f8a8)" d="M 247.230536 90.400814 
C 248.446385 90.400814 249.6126 89.917752 250.472335 89.058017 
C 251.332071 88.198282 251.815133 87.032067 251.815133 85.816218 
C 251.815133 84.600368 251.332071 83.434153 250.472335 82.574418 
C 249.6126 81.714683 248.446385 81.231621 247.230536 81.231621 
C 246.014687 81.231621 244.848472 81.714683 243.988737 82.574418 
C 243.129001 83.434153 242.645939 84.600368 242.645939 85.816218 
C 242.645939 87.032067 243.129001 88.198282 243.988737 89.058017 
C 244.848472 89.917752 246.014687 90.400814 247.230536 90.400814 
z
" style="fill:#4c72b0;stroke:#4c72b0;stroke-width:0.3;"/>
    <path clip-path="url(#p3ee756f8a8)" d="M 369.042746 76.526716 
C 370.159889 76.526716 371.231426 76.082871 372.021365 75.292932 
C 372.811304 74.502993 373.25515 73.431455 373.25515 72.314313 
C 373.25515 71.19717 372.811304 70.125633 372.021365 69.335694 
C 371.231426 68.545755 370.159889 68.101909 369.042746 68.101909 
C 367.925604 68.101909 366.854066 68.545755 366.064127 69.335694 
C 365.274188 70.125633 364.830343 71.19717 364.830343 72.314313 
C 364.830343 73.431455 365.274188 74.502993 366.064127 75.292932 
C 366.854066 76.082871 367.925604 76.526716 369.042746 76.526716 
z
" style="fill:#4c72b0;stroke:#4c72b0;stroke-width:0.3;"/>
    <path clip-path="url(#p3ee756f8a8)" d="M 73.8174 56.076733 
C 74.949346 56.076733 76.035082 55.627007 76.835488 54.8266 
C 77.635895 54.026194 78.085621 52.940458 78.085621 51.808512 
C 78.085621 50.676567 77.635895 49.59083 76.835488 48.790424 
C 76.035082 47.990017 74.949346 47.540291 73.8174 47.540291 
C 72.685455 47.540291 71.599718 47.990017 70.799312 48.790424 
C 69.998905 49.59083 69.549179 50.676567 69.549179 51.808512 
C 69.549179 52.940458 69.998905 54.026194 70.799312 54.8266 
C 71.599718 55.627007 72.685455 56.076733 73.8174 56.076733 
z
" style="fill:#4c72b0;stroke:#4c72b0;stroke-width:0.3;"/>
    <path clip-path="url(#p3ee756f8a8)" d="M 222.096691 230.068529 
C 223.571539 230.068529 224.98618 229.482566 226.029055 228.43969 
C 227.071931 227.396815 227.657894 225.982174 227.657894 224.507326 
C 227.657894 223.032477 227.071931 221.617836 226.029055 220.574961 
C 224.98618 219.532085 223.571539 218.946122 222.096691 218.946122 
C 220.621842 218.946122 219.207201 219.532085 218.164326 220.574961 
C 217.12145 221.617836 216.535487 223.032477 216.535487 224.507326 
C 216.535487 225.982174 217.12145 227.396815 218.164326 228.43969 
C 219.207201 229.482566 220.621842 230.068529 222.096691 230.068529 
z
" style="fill:#4c72b0;stroke:#4c72b0;stroke-width:0.3;"/>
    <path clip-path="url(#p3ee756f8a8)" d="M 236.726266 224.470657 
C 236.938982 224.470657 237.143014 224.386144 237.293426 224.235731 
C 237.443839 224.085319 237.528351 223.881287 237.528351 223.668571 
C 237.528351 223.455856 237.443839 223.251824 237.293426 223.101411 
C 237.143014 222.950999 236.938982 222.866486 236.726266 222.866486 
C 236.513551 222.866486 236.309519 222.950999 236.159106 223.101411 
C 236.008694 223.251824 235.924181 223.455856 235.924181 223.668571 
C 235.924181 223.881287 236.008694 224.085319 236.159106 224.235731 
C 236.309519 224.386144 236.513551 224.470657 236.726266 224.470657 
z
" style="fill:#4c72b0;stroke:#4c72b0;stroke-width:0.3;"/>
   </g>
   <g id="patch_3">
    <path d="M 54 252 
L 54 34.56 
" style="fill:none;stroke:#262626;stroke-linecap:square;stroke-linejoin:miter;stroke-width:1.25;"/>
   </g>
   <g id="patch_4">
    <path d="M 388.8 252 
L 388.8 34.56 
" style="fill:none;stroke:#262626;stroke-linecap:square;stroke-linejoin:miter;stroke-width:1.25;"/>
   </g>
   <g id="patch_5">
    <path d="M 54 252 
L 388.8 252 
" style="fill:none;stroke:#262626;stroke-linecap:square;stroke-linejoin:miter;stroke-width:1.25;"/>
   </g>
   <g id="patch_6">
    <path d="M 54 34.56 
L 388.8 34.56 
" style="fill:none;stroke:#262626;stroke-linecap:square;stroke-linejoin:miter;stroke-width:1.25;"/>
   </g>
  </g>
 </g>
 <defs>
  <clipPath id="p3ee756f8a8">
   <rect height="217.44" width="334.8" x="54" y="34.56"/>
  </clipPath>
 </defs>
</svg>
